<svg version="1.1" xmlns="http://www.w3.org/2000/svg" xmlns:xlink="http://www.w3.org/1999/xlink" width="512.000000pt" height="512.000000pt" viewBox="0,0,256,256"><g fill="#aaaaaa" fill-rule="nonzero" stroke="none" stroke-width="1" stroke-linecap="butt" stroke-linejoin="miter" stroke-miterlimit="10" stroke-dasharray="" stroke-dashoffset="0" font-family="none" font-weight="none" font-size="none" text-anchor="none" style="mix-blend-mode: normal"><g transform="translate(0,0.01367) scale(0.5,0.5)"><g transform="translate(0,512) scale(0.1,-0.1)"><path d="M2393,5105c-309,-56 -567,-250 -703,-530c-79,-161 -92,-224 -97,-472l-5,-212l-327,-3l-326,-3l-53,-29c-28,-16 -64,-44 -78,-63c-58,-76 -54,50 -54,-1851v-1748l26,-52c14,-28 43,-65 64,-82c81,-64 -35,-60 1724,-59c1199,0 1609,3 1633,12c62,23 119,73 146,128l27,53v1748c0,1901 4,1775 -54,1851c-14,19 -50,47 -78,63l-53,29l-326,3l-327,3l-5,212c-5,248 -18,311 -97,472c-189,387 -618,606 -1037,530zM2742,4701c88,-28 207,-108 265,-179c53,-65 106,-173 122,-250c6,-29 11,-127 11,-217v-165h-580h-580v165c0,182 9,240 51,334c53,117 155,223 272,283c119,60 302,72 439,29zM1590,3283c0,-200 2,-220 21,-261c56,-115 212,-137 312,-44c47,44 57,102 57,324v198h579h579l4,-222c3,-239 7,-256 60,-304c45,-42 88,-56 149,-52c74,5 129,40 158,100c19,41 21,61 21,261v217h230h230v-1555v-1555h-1430h-1430v1555v1555h230h230z"></path></g></g></g></svg>